<svg width="200" height="200" viewBox="0 0 200 200" fill="none" xmlns="http://www.w3.org/2000/svg">
<g clip-path="url(#clip0)">
<path d="M43.3333 86.6667C67.2657 86.6667 86.6665 67.2657 86.6665 43.3335C86.6665 19.4013 67.2657 0 43.3333 0C19.4008 0 0 19.401 0 43.3333C0.0275143 67.2542 19.4125 86.6392 43.3333 86.6667ZM43.3333 6.66669C63.5838 6.66669 80 23.083 80 43.3335C80 63.584 63.5838 80.0003 43.3333 80.0003C23.0827 80.0003 6.66669 63.5838 6.66669 43.3333C6.69052 23.0927 23.0927 6.69052 43.3333 6.66669Z" fill="url(#paint0_linear)"/>
<path d="M73.3334 43.3333H66.6667C66.6519 56.2138 56.2138 66.6519 43.3333 66.6667V73.3334C59.8943 73.3149 73.3149 59.8943 73.3334 43.3333Z" fill="url(#paint1_linear)"/>
<path d="M163.333 13.3334C143.083 13.3334 126.667 29.7496 126.667 50.0002C126.667 70.2507 143.083 86.6669 163.333 86.6669C183.584 86.6669 200 70.2507 200 50.0002C199.976 29.7594 183.574 13.3572 163.333 13.3334ZM163.333 80C146.765 80 133.333 66.5685 133.333 49.9999C133.333 33.4314 146.765 20.0001 163.333 20.0001C179.902 20.0001 193.334 33.4316 193.334 50.0002C193.315 66.5609 179.894 79.9816 163.333 80Z" fill="url(#paint2_linear)"/>
<path d="M140 49.9999H146.667C146.678 40.7998 154.133 33.3443 163.333 33.3332V26.6665C150.453 26.6813 140.015 37.1194 140 49.9999Z" fill="url(#paint3_linear)"/>
<path d="M73.3334 126.667C53.0828 126.667 36.6666 143.083 36.6666 163.333C36.6666 183.584 53.0828 200 73.3334 200C93.5839 200 110 183.584 110 163.333C109.976 143.093 93.5739 126.691 73.3334 126.667ZM73.3334 193.334C56.7648 193.334 43.3333 179.902 43.3333 163.333C43.3333 146.765 56.7648 133.333 73.3334 133.333C89.9019 133.333 103.333 146.765 103.333 163.333C103.315 179.894 89.8943 193.315 73.3334 193.334Z" fill="url(#paint4_linear)"/>
<path d="M56.6666 163.333H49.9999C50.0147 176.214 60.4528 186.652 73.3334 186.667V180C64.1332 179.989 56.6777 172.534 56.6666 163.333Z" fill="url(#paint5_linear)"/>
<path d="M100 80C88.9543 80 80.0001 88.9543 80.0001 100C80.0001 111.046 88.9543 120 100 120C111.046 120 120 111.046 120 100C119.989 88.9589 111.041 80.0111 100 80ZM100 113.333C92.6363 113.333 86.6668 107.364 86.6668 100C86.6668 92.6363 92.6363 86.6667 100 86.6667C107.364 86.6667 113.334 92.6363 113.334 100C113.334 107.364 107.364 113.333 100 113.333Z" fill="url(#paint6_linear)"/>
<path d="M166.667 113.333C155.621 113.333 146.667 122.288 146.667 133.334C146.667 144.379 155.621 153.334 166.667 153.334C177.713 153.334 186.667 144.379 186.667 133.334C186.656 122.292 177.708 113.344 166.667 113.333ZM166.667 146.667C159.303 146.667 153.333 140.697 153.333 133.333C153.333 125.969 159.303 120 166.667 120C174.031 120 180 125.969 180 133.333C180 140.697 174.031 146.667 166.667 146.667Z" fill="url(#paint7_linear)"/>
<path d="M20.0001 103.333C14.4773 103.333 10 107.811 10 113.334C10 118.856 14.4773 123.334 20.0001 123.334C25.5229 123.334 30.0001 118.856 30.0001 113.334C30.0001 107.811 25.5229 103.333 20.0001 103.333ZM20.0001 116.667C18.1592 116.667 16.6667 115.174 16.6667 113.334C16.6667 111.493 18.1592 110 20.0001 110C21.8409 110 23.3334 111.493 23.3334 113.334C23.3334 115.174 21.8409 116.667 20.0001 116.667Z" fill="url(#paint8_linear)"/>
<path d="M100 30.0001C105.523 30.0001 110 25.5229 110 20.0001C110 14.4773 105.523 10 100 10C94.4773 10 90.0001 14.4773 90.0001 20.0001C90.0001 25.5229 94.4771 30.0001 100 30.0001ZM100 16.6667C101.841 16.6667 103.333 18.1592 103.333 20.0001C103.333 21.8409 101.841 23.3334 100 23.3334C98.1593 23.3334 96.6668 21.8409 96.6668 20.0001C96.6668 18.1592 98.159 16.6667 100 16.6667Z" fill="url(#paint9_linear)"/>
<path d="M143.333 170C137.811 170 133.333 174.477 133.333 180C133.333 185.523 137.811 190 143.333 190C148.856 190 153.333 185.523 153.333 180C153.333 174.477 148.856 170 143.333 170ZM143.333 183.334C141.493 183.334 140 181.841 140 180C140 178.159 141.493 176.667 143.333 176.667C145.174 176.667 146.667 178.159 146.667 180C146.667 181.841 145.174 183.334 143.333 183.334Z" fill="url(#paint10_linear)"/>
</g>
<defs>
<linearGradient id="paint0_linear" x1="43.3334" y1="0" x2="43.3334" y2="208.333" gradientUnits="userSpaceOnUse">
<stop stop-color="#FFF33B"/>
<stop offset="0.014" stop-color="#FEE72E"/>
<stop offset="0.042" stop-color="#FED51B"/>
<stop offset="0.07" stop-color="#FDCA10"/>
<stop offset="0.1" stop-color="#FDC70C"/>
<stop offset="0.4" stop-color="#F3903F"/>
<stop offset="0.8" stop-color="#ED683C"/>
<stop offset="1" stop-color="#E93E3A"/>
</linearGradient>
<linearGradient id="paint1_linear" x1="58.3334" y1="-6.98963e-06" x2="58.3334" y2="208.333" gradientUnits="userSpaceOnUse">
<stop stop-color="#FFF33B"/>
<stop offset="0.014" stop-color="#FEE72E"/>
<stop offset="0.042" stop-color="#FED51B"/>
<stop offset="0.07" stop-color="#FDCA10"/>
<stop offset="0.1" stop-color="#FDC70C"/>
<stop offset="0.4" stop-color="#F3903F"/>
<stop offset="0.8" stop-color="#ED683C"/>
<stop offset="1" stop-color="#E93E3A"/>
</linearGradient>
<linearGradient id="paint2_linear" x1="163.333" y1="-1.20731e-05" x2="163.333" y2="208.333" gradientUnits="userSpaceOnUse">
<stop stop-color="#FFF33B"/>
<stop offset="0.014" stop-color="#FEE72E"/>
<stop offset="0.042" stop-color="#FED51B"/>
<stop offset="0.07" stop-color="#FDCA10"/>
<stop offset="0.1" stop-color="#FDC70C"/>
<stop offset="0.4" stop-color="#F3903F"/>
<stop offset="0.8" stop-color="#ED683C"/>
<stop offset="1" stop-color="#E93E3A"/>
</linearGradient>
<linearGradient id="paint3_linear" x1="151.667" y1="9.33809e-06" x2="151.667" y2="208.333" gradientUnits="userSpaceOnUse">
<stop stop-color="#FFF33B"/>
<stop offset="0.014" stop-color="#FEE72E"/>
<stop offset="0.042" stop-color="#FED51B"/>
<stop offset="0.07" stop-color="#FDCA10"/>
<stop offset="0.1" stop-color="#FDC70C"/>
<stop offset="0.4" stop-color="#F3903F"/>
<stop offset="0.8" stop-color="#ED683C"/>
<stop offset="1" stop-color="#E93E3A"/>
</linearGradient>
<linearGradient id="paint4_linear" x1="73.3334" y1="-6.8664e-05" x2="73.3334" y2="208.334" gradientUnits="userSpaceOnUse">
<stop stop-color="#FFF33B"/>
<stop offset="0.014" stop-color="#FEE72E"/>
<stop offset="0.042" stop-color="#FED51B"/>
<stop offset="0.07" stop-color="#FDCA10"/>
<stop offset="0.1" stop-color="#FDC70C"/>
<stop offset="0.4" stop-color="#F3903F"/>
<stop offset="0.8" stop-color="#ED683C"/>
<stop offset="1" stop-color="#E93E3A"/>
</linearGradient>
<linearGradient id="paint5_linear" x1="61.6667" y1="3.47844e-05" x2="61.6667" y2="208.333" gradientUnits="userSpaceOnUse">
<stop stop-color="#FFF33B"/>
<stop offset="0.014" stop-color="#FEE72E"/>
<stop offset="0.042" stop-color="#FED51B"/>
<stop offset="0.07" stop-color="#FDCA10"/>
<stop offset="0.1" stop-color="#FDC70C"/>
<stop offset="0.4" stop-color="#F3903F"/>
<stop offset="0.8" stop-color="#ED683C"/>
<stop offset="1" stop-color="#E93E3A"/>
</linearGradient>
<linearGradient id="paint6_linear" x1="100" y1="-1.15731e-05" x2="100" y2="208.333" gradientUnits="userSpaceOnUse">
<stop stop-color="#FFF33B"/>
<stop offset="0.014" stop-color="#FEE72E"/>
<stop offset="0.042" stop-color="#FED51B"/>
<stop offset="0.07" stop-color="#FDCA10"/>
<stop offset="0.1" stop-color="#FDC70C"/>
<stop offset="0.4" stop-color="#F3903F"/>
<stop offset="0.8" stop-color="#ED683C"/>
<stop offset="1" stop-color="#E93E3A"/>
</linearGradient>
<linearGradient id="paint7_linear" x1="166.667" y1="1.10344e-05" x2="166.667" y2="208.333" gradientUnits="userSpaceOnUse">
<stop stop-color="#FFF33B"/>
<stop offset="0.014" stop-color="#FEE72E"/>
<stop offset="0.042" stop-color="#FED51B"/>
<stop offset="0.07" stop-color="#FDCA10"/>
<stop offset="0.1" stop-color="#FDC70C"/>
<stop offset="0.4" stop-color="#F3903F"/>
<stop offset="0.8" stop-color="#ED683C"/>
<stop offset="1" stop-color="#E93E3A"/>
</linearGradient>
<linearGradient id="paint8_linear" x1="20" y1="0.000132179" x2="20" y2="208.333" gradientUnits="userSpaceOnUse">
<stop stop-color="#FFF33B"/>
<stop offset="0.014" stop-color="#FEE72E"/>
<stop offset="0.042" stop-color="#FED51B"/>
<stop offset="0.07" stop-color="#FDCA10"/>
<stop offset="0.1" stop-color="#FDC70C"/>
<stop offset="0.4" stop-color="#F3903F"/>
<stop offset="0.8" stop-color="#ED683C"/>
<stop offset="1" stop-color="#E93E3A"/>
</linearGradient>
<linearGradient id="paint9_linear" x1="100" y1="1.43051e-05" x2="100" y2="208.333" gradientUnits="userSpaceOnUse">
<stop stop-color="#FFF33B"/>
<stop offset="0.014" stop-color="#FEE72E"/>
<stop offset="0.042" stop-color="#FED51B"/>
<stop offset="0.07" stop-color="#FDCA10"/>
<stop offset="0.1" stop-color="#FDC70C"/>
<stop offset="0.4" stop-color="#F3903F"/>
<stop offset="0.8" stop-color="#ED683C"/>
<stop offset="1" stop-color="#E93E3A"/>
</linearGradient>
<linearGradient id="paint10_linear" x1="143.333" y1="4.48737e-05" x2="143.333" y2="208.333" gradientUnits="userSpaceOnUse">
<stop stop-color="#FFF33B"/>
<stop offset="0.014" stop-color="#FEE72E"/>
<stop offset="0.042" stop-color="#FED51B"/>
<stop offset="0.07" stop-color="#FDCA10"/>
<stop offset="0.1" stop-color="#FDC70C"/>
<stop offset="0.4" stop-color="#F3903F"/>
<stop offset="0.8" stop-color="#ED683C"/>
<stop offset="1" stop-color="#E93E3A"/>
</linearGradient>
<clipPath id="clip0">
<rect width="200" height="200" fill="white"/>
</clipPath>
</defs>
</svg>
